<?xml version="1.0" encoding="UTF-8"?>
<!DOCTYPE svg PUBLIC "-//W3C//DTD SVG 1.1//EN" "http://www.w3.org/Graphics/SVG/1.1/DTD/svg11.dtd">
<svg xmlns="http://www.w3.org/2000/svg" version="1.1" width="620px" height="800px" style="shape-rendering:geometricPrecision; text-rendering:geometricPrecision; image-rendering:optimizeQuality; fill-rule:evenodd; clip-rule:evenodd" xmlns:xlink="http://www.w3.org/1999/xlink">
<g><path style="opacity:0.004" fill="#e95d34" d="M 289.5,142.5 C 288.833,141.167 288.833,141.167 289.5,142.5 Z"/></g>
<g><path style="opacity:1" fill="#003a7d" d="M 329.5,142.5 C 330.884,143.801 332.384,143.801 334,142.5C 336.066,144.64 338.4,145.307 341,144.5C 342.512,145.257 343.846,146.257 345,147.5C 345.333,147.167 345.667,146.833 346,146.5C 350.155,148.244 354.155,150.244 358,152.5C 358.333,152.167 358.667,151.833 359,151.5C 360.731,153.85 362.564,155.184 364.5,155.5C 367.893,156.496 370.726,158.496 373,161.5C 373.333,161.167 373.667,160.833 374,160.5C 376.538,163.512 379.371,166.179 382.5,168.5C 383.008,170.233 383.841,170.566 385,169.5C 385.333,170.5 385.667,171.5 386,172.5C 386.914,171.346 387.747,171.513 388.5,173C 388.167,173.333 387.833,173.667 387.5,174C 388.5,174.333 389.5,174.667 390.5,175C 389.434,176.159 389.767,176.992 391.5,177.5C 393.821,180.629 396.488,183.462 399.5,186C 399.167,186.333 398.833,186.667 398.5,187C 399.833,189 401.5,190.667 403.5,192C 402.713,193.313 403.046,194.48 404.5,195.5C 404.816,197.436 406.15,199.269 408.5,201C 408.167,201.333 407.833,201.667 407.5,202C 410.096,206.266 412.096,210.433 413.5,214.5C 412.167,214.833 412.167,215.167 413.5,215.5C 414.868,220.586 416.201,225.586 417.5,230.5C 418.833,243.833 418.833,257.167 417.5,270.5C 416.201,275.414 414.868,280.414 413.5,285.5C 412.167,285.833 412.167,286.167 413.5,286.5C 412.049,290.593 410.049,294.76 407.5,299C 407.833,299.333 408.167,299.667 408.5,300C 406.15,301.731 404.816,303.564 404.5,305.5C 401.094,311.661 396.76,317.495 391.5,323C 391.833,323.333 392.167,323.667 392.5,324C 391.5,324.333 390.5,324.667 389.5,325C 389.833,325.333 390.167,325.667 390.5,326C 389.5,326.333 388.5,326.667 387.5,327C 388.654,327.914 388.487,328.747 387,329.5C 386.667,329.167 386.333,328.833 386,328.5C 385.667,329.5 385.333,330.5 385,331.5C 383.841,330.434 383.008,330.767 382.5,332.5C 379.16,335.338 375.994,337.671 373,339.5C 371,340.833 369.333,342.5 368,344.5C 366.687,343.713 365.52,344.046 364.5,345.5C 362.564,345.816 360.731,347.15 359,349.5C 354.605,350.577 350.105,352.243 345.5,354.5C 345.167,353.167 344.833,353.167 344.5,354.5C 339.414,355.868 334.414,357.201 329.5,358.5C 316.167,359.833 302.833,359.833 289.5,358.5C 284.586,357.201 279.586,355.868 274.5,354.5C 274.167,353.167 273.833,353.167 273.5,354.5C 268.895,352.243 264.395,350.577 260,349.5C 258.269,347.15 256.436,345.816 254.5,345.5C 253.48,344.046 252.313,343.713 251,344.5C 249.667,342.5 248,340.833 246,339.5C 243.006,337.671 239.84,335.338 236.5,332.5C 235.992,330.767 235.159,330.434 234,331.5C 233.667,330.5 233.333,329.5 233,328.5C 232.086,329.654 231.253,329.487 230.5,328C 230.833,327.667 231.167,327.333 231.5,327C 230.5,326.667 229.5,326.333 228.5,326C 228.833,325.667 229.167,325.333 229.5,325C 228.5,324.667 227.5,324.333 226.5,324C 226.833,323.667 227.167,323.333 227.5,323C 222.24,317.495 217.906,311.661 214.5,305.5C 214.082,304.778 213.416,304.278 212.5,304C 213.061,302.434 212.394,301.101 210.5,300C 210.833,299.667 211.167,299.333 211.5,299C 210.266,296.076 208.599,293.409 206.5,291C 207.214,289.657 206.88,288.324 205.5,287C 205.833,286.667 206.167,286.333 206.5,286C 204.316,280.949 202.649,275.783 201.5,270.5C 200.167,257.167 200.167,243.833 201.5,230.5C 203.087,223.594 205.087,217.094 207.5,211C 207.167,210.667 206.833,210.333 206.5,210C 208.353,207.429 210.019,204.762 211.5,202C 210.939,200.434 211.606,199.101 213.5,198C 213.167,197.667 212.833,197.333 212.5,197C 213.416,196.722 214.082,196.222 214.5,195.5C 215.954,194.48 216.287,193.313 215.5,192C 217.5,190.667 219.167,189 220.5,187C 220.167,186.667 219.833,186.333 219.5,186C 222.512,183.462 225.179,180.629 227.5,177.5C 229.233,176.992 229.566,176.159 228.5,175C 229.5,174.667 230.5,174.333 231.5,174C 230.346,173.086 230.513,172.253 232,171.5C 232.333,171.833 232.667,172.167 233,172.5C 233.333,171.5 233.667,170.5 234,169.5C 235.159,170.566 235.992,170.233 236.5,168.5C 241.566,164.481 246.232,160.647 250.5,157C 252.058,156.79 253.391,156.29 254.5,155.5C 256.436,155.184 258.269,153.85 260,151.5C 260.333,151.833 260.667,152.167 261,152.5C 264.845,150.244 268.845,148.244 273,146.5C 273.333,146.833 273.667,147.167 274,147.5C 275.572,145.437 277.405,144.771 279.5,145.5C 281.614,144.966 283.448,143.966 285,142.5C 286.616,143.801 288.116,143.801 289.5,142.5C 302.833,141.167 316.167,141.167 329.5,142.5 Z"/></g>
<g><path style="opacity:0.004" fill="#e95d34" d="M 329.5,141.5 C 330.833,142.167 330.833,142.167 329.5,141.5 Z"/></g>
<g><path style="opacity:0.004" fill="#e95d34" d="M 254.5,155.5 C 253.833,154.167 253.833,154.167 254.5,155.5 Z"/></g>
<g><path style="opacity:0.004" fill="#e95d34" d="M 364.5,154.5 C 365.833,155.167 365.833,155.167 364.5,154.5 Z"/></g>
<g><path style="opacity:0.004" fill="#e95d34" d="M 236.5,168.5 C 235.833,167.167 235.833,167.167 236.5,168.5 Z"/></g>
<g><path style="opacity:0.004" fill="#e95d34" d="M 382.5,167.5 C 383.833,168.167 383.833,168.167 382.5,167.5 Z"/></g>
<g><path style="opacity:0.004" fill="#e95d34" d="M 227.5,177.5 C 226.833,176.167 226.833,176.167 227.5,177.5 Z"/></g>
<g><path style="opacity:0.004" fill="#e95d34" d="M 391.5,176.5 C 392.833,177.167 392.833,177.167 391.5,176.5 Z"/></g>
<g><path style="opacity:0.004" fill="#e95d34" d="M 214.5,195.5 C 213.833,194.167 213.833,194.167 214.5,195.5 Z"/></g>
<g><path style="opacity:0.004" fill="#e95d34" d="M 404.5,194.5 C 405.833,195.167 405.833,195.167 404.5,194.5 Z"/></g>
<g><path style="opacity:0.004" fill="#e95d34" d="M 413.5,214.5 C 414.833,215.167 414.833,215.167 413.5,214.5 Z"/></g>
<g><path style="opacity:0.004" fill="#e95d34" d="M 201.5,230.5 C 200.833,229.167 200.833,229.167 201.5,230.5 Z"/></g>
<g><path style="opacity:0.004" fill="#e95d34" d="M 417.5,229.5 C 418.833,230.167 418.833,230.167 417.5,229.5 Z"/></g>
<g><path style="opacity:0.004" fill="#e95d34" d="M 201.5,270.5 C 200.833,271.167 200.833,271.167 201.5,270.5 Z"/></g>
<g><path style="opacity:0.004" fill="#e95d34" d="M 417.5,270.5 C 418.833,271.167 418.833,271.167 417.5,270.5 Z"/></g>
<g><path style="opacity:0.004" fill="#e95d34" d="M 413.5,285.5 C 414.833,286.167 414.833,286.167 413.5,285.5 Z"/></g>
<g><path style="opacity:0.004" fill="#e95d34" d="M 214.5,305.5 C 213.833,306.167 213.833,306.167 214.5,305.5 Z"/></g>
<g><path style="opacity:0.004" fill="#e95d34" d="M 404.5,305.5 C 405.833,306.167 405.833,306.167 404.5,305.5 Z"/></g>
<g><path style="opacity:0.004" fill="#e95d34" d="M 236.5,332.5 C 235.833,333.167 235.833,333.167 236.5,332.5 Z"/></g>
<g><path style="opacity:0.004" fill="#e95d34" d="M 382.5,332.5 C 383.833,333.167 383.833,333.167 382.5,332.5 Z"/></g>
<g><path style="opacity:0.004" fill="#e95d34" d="M 254.5,345.5 C 253.833,346.167 253.833,346.167 254.5,345.5 Z"/></g>
<g><path style="opacity:0.004" fill="#e95d34" d="M 364.5,345.5 C 365.833,346.167 365.833,346.167 364.5,345.5 Z"/></g>
<g><path style="opacity:0.004" fill="#e95d34" d="M 273.5,354.5 C 273.833,354.5 274.167,354.5 274.5,354.5C 274.315,355.17 273.981,355.17 273.5,354.5 Z"/></g>
<g><path style="opacity:0.004" fill="#e95d34" d="M 344.5,354.5 C 344.833,354.5 345.167,354.5 345.5,354.5C 345.315,355.17 344.981,355.17 344.5,354.5 Z"/></g>
<g><path style="opacity:0.004" fill="#e95d34" d="M 289.5,358.5 C 288.833,359.167 288.833,359.167 289.5,358.5 Z"/></g>
<g><path style="opacity:0.004" fill="#e95d34" d="M 329.5,358.5 C 330.833,359.167 330.833,359.167 329.5,358.5 Z"/></g>
<g><path style="opacity:1" fill="#003a7d" d="M 380.5,384.5 C 381.531,385.249 382.698,385.915 384,386.5C 384.333,386.167 384.667,385.833 385,385.5C 385.918,387.632 387.251,388.299 389,387.5C 389.442,389.679 390.442,390.345 392,389.5C 392.918,391.632 394.251,392.299 396,391.5C 396.792,393.644 398.292,394.977 400.5,395.5C 402.355,396.69 404.188,398.023 406,399.5C 406.333,399.167 406.667,398.833 407,398.5C 408.535,401.267 410.702,403.267 413.5,404.5C 415.103,405.596 416.603,406.93 418,408.5C 418.333,408.167 418.667,407.833 419,407.5C 420.032,409.027 421.199,410.36 422.5,411.5C 422.833,412.5 423.5,413.167 424.5,413.5C 431.167,419.5 437.833,426.166 444.5,433.5C 444.833,434.5 445.5,435.167 446.5,435.5C 449.289,438.187 451.622,441.187 453.5,444.5C 457.864,449.555 461.531,454.555 464.5,459.5C 464.932,460.71 465.599,461.71 466.5,462.5C 469.52,466.997 472.52,471.997 475.5,477.5C 478.695,483.891 481.695,489.891 484.5,495.5C 489.605,506.95 493.938,518.617 497.5,530.5C 506.55,560.016 510.383,591.016 509,623.5C 508.333,624.833 507.667,626.167 507,627.5C 506.667,627.167 506.333,626.833 506,626.5C 501.171,631.042 495.671,634.375 489.5,636.5C 486.58,636.695 483.747,638.028 481,640.5C 480.586,640.043 480.086,639.709 479.5,639.5C 475.135,641.095 470.802,642.429 466.5,643.5C 434.931,650.66 403.265,654.993 371.5,656.5C 330.167,657.833 288.833,657.833 247.5,656.5C 215.735,654.993 184.069,650.66 152.5,643.5C 148.198,642.429 143.865,641.095 139.5,639.5C 138.914,639.709 138.414,640.043 138,640.5C 135.253,638.028 132.42,636.695 129.5,636.5C 123.329,634.375 117.829,631.042 113,626.5C 112.667,626.833 112.333,627.167 112,627.5C 111.333,626.167 110.667,624.833 110,623.5C 108.617,591.016 112.45,560.016 121.5,530.5C 125.062,518.617 129.395,506.95 134.5,495.5C 137.305,489.891 140.305,483.891 143.5,477.5C 146.48,471.997 149.48,466.997 152.5,462.5C 153.401,461.71 154.068,460.71 154.5,459.5C 157.469,454.555 161.136,449.555 165.5,444.5C 167.378,441.187 169.711,438.187 172.5,435.5C 173.5,435.167 174.167,434.5 174.5,433.5C 181.167,426.166 187.833,419.5 194.5,413.5C 195.5,413.167 196.167,412.5 196.5,411.5C 197.801,410.36 198.968,409.027 200,407.5C 200.333,407.833 200.667,408.167 201,408.5C 202.397,406.93 203.897,405.596 205.5,404.5C 208.298,403.267 210.465,401.267 212,398.5C 212.333,398.833 212.667,399.167 213,399.5C 214.812,398.023 216.645,396.69 218.5,395.5C 220.708,394.977 222.208,393.644 223,391.5C 224.749,392.299 226.082,391.632 227,389.5C 228.558,390.345 229.558,389.679 230,387.5C 231.749,388.299 233.082,387.632 234,385.5C 234.333,385.833 234.667,386.167 235,386.5C 236.302,385.915 237.469,385.249 238.5,384.5C 242.704,383.158 246.537,381.158 250,378.5C 250.414,378.957 250.914,379.291 251.5,379.5C 254.5,378.167 257.5,376.833 260.5,375.5C 261.086,375.709 261.586,376.043 262,376.5C 266.054,374.985 270.054,373.319 274,371.5C 274.561,372.022 275.228,372.355 276,372.5C 279.834,370.736 283.668,370.069 287.5,370.5C 302.167,367.833 316.833,367.833 331.5,370.5C 335.332,370.069 339.166,370.736 343,372.5C 343.772,372.355 344.439,372.022 345,371.5C 348.946,373.319 352.946,374.985 357,376.5C 357.414,376.043 357.914,375.709 358.5,375.5C 361.5,376.833 364.5,378.167 367.5,379.5C 369.123,378.524 370.457,379.024 371.5,381C 374.526,382.183 377.526,383.349 380.5,384.5 Z"/></g>
<g><path style="opacity:0.004" fill="#e95d34" d="M 238.5,384.5 C 237.833,383.167 237.833,383.167 238.5,384.5 Z"/></g>
<g><path style="opacity:0.004" fill="#e95d34" d="M 380.5,383.5 C 381.833,384.167 381.833,384.167 380.5,383.5 Z"/></g>
<g><path style="opacity:0.004" fill="#e95d34" d="M 218.5,395.5 C 217.833,394.167 217.833,394.167 218.5,395.5 Z"/></g>
<g><path style="opacity:0.004" fill="#e95d34" d="M 400.5,394.5 C 401.833,395.167 401.833,395.167 400.5,394.5 Z"/></g>
<g><path style="opacity:0.004" fill="#e95d34" d="M 205.5,404.5 C 204.833,403.167 204.833,403.167 205.5,404.5 Z"/></g>
<g><path style="opacity:0.004" fill="#e95d34" d="M 413.5,403.5 C 414.833,404.167 414.833,404.167 413.5,403.5 Z"/></g>
<g><path style="opacity:0.004" fill="#e95d34" d="M 196.5,411.5 C 195.833,410.167 195.833,410.167 196.5,411.5 Z"/></g>
<g><path style="opacity:0.004" fill="#e95d34" d="M 422.5,410.5 C 423.833,411.167 423.833,411.167 422.5,410.5 Z"/></g>
<g><path style="opacity:0.004" fill="#e95d34" d="M 194.5,413.5 C 193.833,412.167 193.833,412.167 194.5,413.5 Z"/></g>
<g><path style="opacity:0.004" fill="#e95d34" d="M 424.5,412.5 C 425.833,413.167 425.833,413.167 424.5,412.5 Z"/></g>
<g><path style="opacity:0.004" fill="#e95d34" d="M 174.5,433.5 C 173.833,432.167 173.833,432.167 174.5,433.5 Z"/></g>
<g><path style="opacity:0.004" fill="#e95d34" d="M 444.5,432.5 C 445.833,433.167 445.833,433.167 444.5,432.5 Z"/></g>
<g><path style="opacity:0.004" fill="#e95d34" d="M 172.5,435.5 C 171.833,434.167 171.833,434.167 172.5,435.5 Z"/></g>
<g><path style="opacity:0.004" fill="#e95d34" d="M 446.5,434.5 C 447.833,435.167 447.833,435.167 446.5,434.5 Z"/></g>
<g><path style="opacity:0.004" fill="#e95d34" d="M 165.5,444.5 C 164.833,443.167 164.833,443.167 165.5,444.5 Z"/></g>
<g><path style="opacity:0.004" fill="#e95d34" d="M 453.5,443.5 C 454.833,444.167 454.833,444.167 453.5,443.5 Z"/></g>
<g><path style="opacity:0.004" fill="#e95d34" d="M 154.5,459.5 C 153.833,458.167 153.833,458.167 154.5,459.5 Z"/></g>
<g><path style="opacity:0.004" fill="#e95d34" d="M 464.5,458.5 C 465.833,459.167 465.833,459.167 464.5,458.5 Z"/></g>
<g><path style="opacity:0.004" fill="#e95d34" d="M 152.5,462.5 C 151.833,461.167 151.833,461.167 152.5,462.5 Z"/></g>
<g><path style="opacity:0.004" fill="#e95d34" d="M 466.5,461.5 C 467.833,462.167 467.833,462.167 466.5,461.5 Z"/></g>
<g><path style="opacity:0.004" fill="#e95d34" d="M 143.5,477.5 C 142.833,476.167 142.833,476.167 143.5,477.5 Z"/></g>
<g><path style="opacity:0.004" fill="#e95d34" d="M 475.5,476.5 C 476.833,477.167 476.833,477.167 475.5,476.5 Z"/></g>
<g><path style="opacity:0.004" fill="#e95d34" d="M 134.5,495.5 C 133.833,494.167 133.833,494.167 134.5,495.5 Z"/></g>
<g><path style="opacity:0.004" fill="#e95d34" d="M 484.5,494.5 C 485.833,495.167 485.833,495.167 484.5,494.5 Z"/></g>
<g><path style="opacity:0.004" fill="#e95d34" d="M 121.5,530.5 C 120.833,529.167 120.833,529.167 121.5,530.5 Z"/></g>
<g><path style="opacity:0.004" fill="#e95d34" d="M 497.5,529.5 C 498.833,530.167 498.833,530.167 497.5,529.5 Z"/></g>
<g><path style="opacity:0.004" fill="#e95d34" d="M 129.5,636.5 C 128.833,637.167 128.833,637.167 129.5,636.5 Z"/></g>
<g><path style="opacity:0.004" fill="#e95d34" d="M 489.5,636.5 C 490.833,637.167 490.833,637.167 489.5,636.5 Z"/></g>
<g><path style="opacity:0.004" fill="#e95d34" d="M 152.5,643.5 C 151.833,644.167 151.833,644.167 152.5,643.5 Z"/></g>
<g><path style="opacity:0.004" fill="#e95d34" d="M 466.5,643.5 C 467.833,644.167 467.833,644.167 466.5,643.5 Z"/></g>
<g><path style="opacity:0.004" fill="#e95d34" d="M 247.5,656.5 C 246.833,657.167 246.833,657.167 247.5,656.5 Z"/></g>
<g><path style="opacity:0.004" fill="#e95d34" d="M 371.5,656.5 C 372.833,657.167 372.833,657.167 371.5,656.5 Z"/></g>
</svg>
